# MagicaVoxel @ Ephtracy

# group
o 

# material
mtllib Player.mtl
usemtl palette

# normals
vn -1 0 0
vn 1 0 0
vn 0 0 1
vn 0 0 -1
vn 0 -1 0
vn 0 1 0

# texcoords
vt 0.306641 0.5
vt 0.876953 0.5
vt 0.958984 0.5

# verts
v -0.5 0 0.5
v -0.5 0 -0.5
v -0.5 1 0.5
v -0.5 1 -0.5
v -0.3 0.2 0.5
v -0.3 0.2 0.4
v -0.3 0.3 0.5
v -0.3 0.3 0.4
v -0.3 0.6 0.5
v -0.3 0.6 0.4
v -0.3 0.8 0.5
v -0.3 0.8 0.4
v -0.2 0.1 0.5
v -0.2 0.1 0.4
v -0.2 0.2 0.5
v -0.2 0.2 0.4
v -0.1 0.4 0.5
v -0.1 0.4 0.4
v -0.1 0.5 0.5
v -0.1 0.5 0.4
v 0 0.3 0.5
v 0 0.3 0.4
v 0 0.4 0.5
v 0 0.4 0.4
v 0.2 0.2 0.5
v 0.2 0.2 0.4
v 0.2 0.3 0.5
v 0.2 0.3 0.4
v 0.2 0.6 0.5
v 0.2 0.6 0.4
v 0.2 0.8 0.5
v 0.2 0.8 0.4
v 0.3 0.3 0.5
v 0.3 0.3 0.4
v 0.3 0.4 0.5
v 0.3 0.4 0.4
v 0.4 0.1 0.5
v 0.4 0.1 0.4
v 0.4 0.3 0.5
v 0.4 0.3 0.4
v 0.4 0.4 0.5
v 0.4 0.4 0.4
v 0.4 0.9 0.5
v 0.4 0.9 0.4
v -0.4 0.1 0.5
v -0.4 0.1 0.4
v -0.4 0.3 0.5
v -0.4 0.3 0.4
v -0.4 0.4 0.5
v -0.4 0.4 0.4
v -0.4 0.9 0.5
v -0.4 0.9 0.4
v -0.3 0.3 0.5
v -0.3 0.3 0.4
v -0.3 0.4 0.5
v -0.3 0.4 0.4
v -0.2 0.2 0.5
v -0.2 0.2 0.4
v -0.2 0.3 0.5
v -0.2 0.3 0.4
v -0.2 0.6 0.5
v -0.2 0.6 0.4
v -0.2 0.8 0.5
v -0.2 0.8 0.4
v 0 0.4 0.5
v 0 0.4 0.4
v 0 0.5 0.5
v 0 0.5 0.4
v 0.1 0.3 0.5
v 0.1 0.3 0.4
v 0.1 0.4 0.5
v 0.1 0.4 0.4
v 0.2 0.1 0.5
v 0.2 0.1 0.4
v 0.2 0.2 0.5
v 0.2 0.2 0.4
v 0.3 0.2 0.5
v 0.3 0.2 0.4
v 0.3 0.3 0.5
v 0.3 0.3 0.4
v 0.3 0.6 0.5
v 0.3 0.6 0.4
v 0.3 0.8 0.5
v 0.3 0.8 0.4
v 0.5 0 0.5
v 0.5 0 -0.5
v 0.5 1 0.5
v 0.5 1 -0.5
v -0.5 0 0.5
v -0.5 1 0.5
v -0.4 0.1 0.5
v -0.4 0.3 0.5
v -0.4 0.4 0.5
v -0.4 0.9 0.5
v -0.3 0.2 0.5
v -0.3 0.3 0.5
v -0.3 0.4 0.5
v -0.3 0.6 0.5
v -0.3 0.8 0.5
v -0.2 0.1 0.5
v -0.2 0.2 0.5
v -0.2 0.3 0.5
v -0.2 0.6 0.5
v -0.2 0.8 0.5
v -0.1 0.4 0.5
v -0.1 0.5 0.5
v 0 0.3 0.5
v 0 0.4 0.5
v 0 0.5 0.5
v 0.1 0.3 0.5
v 0.1 0.4 0.5
v 0.2 0.1 0.5
v 0.2 0.2 0.5
v 0.2 0.3 0.5
v 0.2 0.6 0.5
v 0.2 0.8 0.5
v 0.3 0.2 0.5
v 0.3 0.3 0.5
v 0.3 0.4 0.5
v 0.3 0.6 0.5
v 0.3 0.8 0.5
v 0.4 0.1 0.5
v 0.4 0.3 0.5
v 0.4 0.4 0.5
v 0.4 0.9 0.5
v 0.5 0 0.5
v 0.5 1 0.5
v -0.4 0.1 0.4
v -0.4 0.3 0.4
v -0.4 0.4 0.4
v -0.4 0.9 0.4
v -0.3 0.2 0.4
v -0.3 0.3 0.4
v -0.3 0.4 0.4
v -0.3 0.6 0.4
v -0.3 0.8 0.4
v -0.2 0.1 0.4
v -0.2 0.2 0.4
v -0.2 0.3 0.4
v -0.2 0.6 0.4
v -0.2 0.8 0.4
v -0.1 0.4 0.4
v -0.1 0.5 0.4
v 0 0.3 0.4
v 0 0.4 0.4
v 0 0.5 0.4
v 0.1 0.3 0.4
v 0.1 0.4 0.4
v 0.2 0.1 0.4
v 0.2 0.2 0.4
v 0.2 0.3 0.4
v 0.2 0.6 0.4
v 0.2 0.8 0.4
v 0.3 0.2 0.4
v 0.3 0.3 0.4
v 0.3 0.4 0.4
v 0.3 0.6 0.4
v 0.3 0.8 0.4
v 0.4 0.1 0.4
v 0.4 0.3 0.4
v 0.4 0.4 0.4
v 0.4 0.9 0.4
v -0.5 0 -0.5
v -0.5 1 -0.5
v 0.5 0 -0.5
v 0.5 1 -0.5
v -0.5 0 0.5
v 0.5 0 0.5
v -0.4 0 0.4
v -0.3 0 0.4
v -0.4 0 -0.4
v -0.3 0 -0.4
v -0.5 0 -0.5
v 0.5 0 -0.5
v -0.3 0.2 0.5
v -0.2 0.2 0.5
v 0.2 0.2 0.5
v 0.3 0.2 0.5
v -0.3 0.2 0.4
v -0.2 0.2 0.4
v 0.2 0.2 0.4
v 0.3 0.2 0.4
v -0.4 0.3 0.5
v -0.3 0.3 0.5
v 0 0.3 0.5
v 0.1 0.3 0.5
v 0.3 0.3 0.5
v 0.4 0.3 0.5
v -0.4 0.3 0.4
v -0.3 0.3 0.4
v 0 0.3 0.4
v 0.1 0.3 0.4
v 0.3 0.3 0.4
v 0.4 0.3 0.4
v -0.1 0.4 0.5
v 0 0.4 0.5
v -0.1 0.4 0.4
v 0 0.4 0.4
v -0.3 0.6 0.5
v -0.2 0.6 0.5
v 0.2 0.6 0.5
v 0.3 0.6 0.5
v -0.3 0.6 0.4
v -0.2 0.6 0.4
v 0.2 0.6 0.4
v 0.3 0.6 0.4
v -0.4 0.9 0.5
v 0.4 0.9 0.5
v -0.4 0.9 0.4
v 0.4 0.9 0.4
v -0.4 0.1 0.5
v -0.2 0.1 0.5
v 0.2 0.1 0.5
v 0.4 0.1 0.5
v -0.4 0.1 0.4
v -0.2 0.1 0.4
v 0.2 0.1 0.4
v 0.4 0.1 0.4
v -0.2 0.2 0.5
v 0.2 0.2 0.5
v -0.2 0.2 0.4
v 0.2 0.2 0.4
v -0.3 0.3 0.5
v -0.2 0.3 0.5
v 0.2 0.3 0.5
v 0.3 0.3 0.5
v -0.3 0.3 0.4
v -0.2 0.3 0.4
v 0.2 0.3 0.4
v 0.3 0.3 0.4
v -0.4 0.4 0.5
v -0.3 0.4 0.5
v 0 0.4 0.5
v 0.1 0.4 0.5
v 0.3 0.4 0.5
v 0.4 0.4 0.5
v -0.4 0.4 0.4
v -0.3 0.4 0.4
v 0 0.4 0.4
v 0.1 0.4 0.4
v 0.3 0.4 0.4
v 0.4 0.4 0.4
v -0.1 0.5 0.5
v 0 0.5 0.5
v -0.1 0.5 0.4
v 0 0.5 0.4
v -0.3 0.8 0.5
v -0.2 0.8 0.5
v 0.2 0.8 0.5
v 0.3 0.8 0.5
v -0.3 0.8 0.4
v -0.2 0.8 0.4
v 0.2 0.8 0.4
v 0.3 0.8 0.4
v -0.5 1 0.5
v 0.5 1 0.5
v -0.5 1 -0.5
v 0.5 1 -0.5

# faces
f 3/3/1 2/3/1 1/3/1
f 4/3/1 2/3/1 3/3/1
f 7/2/1 6/2/1 5/2/1
f 8/2/1 6/2/1 7/2/1
f 11/2/1 10/2/1 9/2/1
f 12/2/1 10/2/1 11/2/1
f 15/2/1 14/2/1 13/2/1
f 16/2/1 14/2/1 15/2/1
f 19/2/1 18/2/1 17/2/1
f 20/2/1 18/2/1 19/2/1
f 23/2/1 22/2/1 21/2/1
f 24/2/1 22/2/1 23/2/1
f 27/2/1 26/2/1 25/2/1
f 28/2/1 26/2/1 27/2/1
f 31/2/1 30/2/1 29/2/1
f 32/2/1 30/2/1 31/2/1
f 35/2/1 34/2/1 33/2/1
f 36/2/1 34/2/1 35/2/1
f 39/3/1 38/3/1 37/3/1
f 40/3/1 38/3/1 39/3/1
f 43/3/1 42/3/1 41/3/1
f 44/3/1 42/3/1 43/3/1
f 45/3/2 46/3/2 47/3/2
f 47/3/2 46/3/2 48/3/2
f 49/3/2 50/3/2 51/3/2
f 51/3/2 50/3/2 52/3/2
f 53/2/2 54/2/2 55/2/2
f 55/2/2 54/2/2 56/2/2
f 57/2/2 58/2/2 59/2/2
f 59/2/2 58/2/2 60/2/2
f 61/2/2 62/2/2 63/2/2
f 63/2/2 62/2/2 64/2/2
f 65/2/2 66/2/2 67/2/2
f 67/2/2 66/2/2 68/2/2
f 69/2/2 70/2/2 71/2/2
f 71/2/2 70/2/2 72/2/2
f 73/2/2 74/2/2 75/2/2
f 75/2/2 74/2/2 76/2/2
f 77/2/2 78/2/2 79/2/2
f 79/2/2 78/2/2 80/2/2
f 81/2/2 82/2/2 83/2/2
f 83/2/2 82/2/2 84/2/2
f 85/3/2 86/3/2 87/3/2
f 87/3/2 86/3/2 88/3/2
f 91/3/3 90/3/3 89/3/3
f 92/3/3 90/3/3 91/3/3
f 93/3/3 90/3/3 92/3/3
f 94/3/3 90/3/3 93/3/3
f 96/2/3 93/2/3 92/2/3
f 97/2/3 93/2/3 96/2/3
f 100/3/3 91/3/3 89/3/3
f 101/2/3 96/2/3 95/2/3
f 102/2/3 96/2/3 101/2/3
f 103/2/3 99/2/3 98/2/3
f 104/2/3 99/2/3 103/2/3
f 108/2/3 106/2/3 105/2/3
f 109/2/3 106/2/3 108/2/3
f 110/2/3 108/2/3 107/2/3
f 111/2/3 108/2/3 110/2/3
f 112/3/3 100/3/3 89/3/3
f 112/2/3 101/2/3 100/2/3
f 113/2/3 101/2/3 112/2/3
f 117/2/3 114/2/3 113/2/3
f 118/2/3 114/2/3 117/2/3
f 120/2/3 116/2/3 115/2/3
f 121/2/3 116/2/3 120/2/3
f 122/3/3 112/3/3 89/3/3
f 123/2/3 119/2/3 118/2/3
f 124/2/3 119/2/3 123/2/3
f 125/3/3 90/3/3 94/3/3
f 126/3/3 124/3/3 123/3/3
f 126/3/3 125/3/3 124/3/3
f 126/3/3 123/3/3 122/3/3
f 126/3/3 122/3/3 89/3/3
f 127/3/3 90/3/3 125/3/3
f 127/3/3 125/3/3 126/3/3
f 132/3/3 129/3/3 128/3/3
f 133/3/3 129/3/3 132/3/3
f 134/3/3 131/3/3 130/3/3
f 135/3/3 131/3/3 134/3/3
f 136/3/3 131/3/3 135/3/3
f 137/3/3 132/3/3 128/3/3
f 138/3/3 132/3/3 137/3/3
f 139/3/3 135/3/3 134/3/3
f 139/3/3 134/3/3 133/3/3
f 140/3/3 135/3/3 139/3/3
f 141/3/3 131/3/3 136/3/3
f 142/3/3 140/3/3 139/3/3
f 142/3/3 141/3/3 140/3/3
f 142/3/3 139/3/3 138/3/3
f 143/3/3 141/3/3 142/3/3
f 144/3/3 142/3/3 138/3/3
f 145/3/3 142/3/3 144/3/3
f 146/3/3 141/3/3 143/3/3
f 147/3/3 144/3/3 138/3/3
f 148/3/3 146/3/3 145/3/3
f 150/3/3 147/3/3 138/3/3
f 150/3/3 148/3/3 147/3/3
f 151/3/3 148/3/3 150/3/3
f 152/3/3 146/3/3 148/3/3
f 152/3/3 148/3/3 151/3/3
f 152/3/3 141/3/3 146/3/3
f 153/3/3 131/3/3 141/3/3
f 153/3/3 141/3/3 152/3/3
f 154/3/3 150/3/3 149/3/3
f 155/3/3 152/3/3 151/3/3
f 156/3/3 152/3/3 155/3/3
f 157/3/3 152/3/3 156/3/3
f 158/3/3 131/3/3 153/3/3
f 159/3/3 154/3/3 149/3/3
f 159/3/3 155/3/3 154/3/3
f 160/3/3 155/3/3 159/3/3
f 161/3/3 158/3/3 157/3/3
f 161/3/3 157/3/3 156/3/3
f 162/3/3 131/3/3 158/3/3
f 162/3/3 158/3/3 161/3/3
f 163/3/4 164/3/4 165/3/4
f 165/3/4 164/3/4 166/3/4
f 169/3/5 168/3/5 167/3/5
f 170/3/5 168/3/5 169/3/5
f 171/3/5 169/3/5 167/3/5
f 171/1/5 170/1/5 169/1/5
f 172/3/5 168/3/5 170/3/5
f 172/1/5 170/1/5 171/1/5
f 173/3/5 171/3/5 167/3/5
f 173/3/5 172/3/5 171/3/5
f 174/3/5 168/3/5 172/3/5
f 174/3/5 172/3/5 173/3/5
f 179/2/5 176/2/5 175/2/5
f 180/2/5 176/2/5 179/2/5
f 181/2/5 178/2/5 177/2/5
f 182/2/5 178/2/5 181/2/5
f 189/2/5 184/2/5 183/2/5
f 190/2/5 184/2/5 189/2/5
f 191/2/5 186/2/5 185/2/5
f 192/2/5 186/2/5 191/2/5
f 193/2/5 188/2/5 187/2/5
f 194/2/5 188/2/5 193/2/5
f 197/2/5 196/2/5 195/2/5
f 198/2/5 196/2/5 197/2/5
f 203/2/5 200/2/5 199/2/5
f 204/2/5 200/2/5 203/2/5
f 205/2/5 202/2/5 201/2/5
f 206/2/5 202/2/5 205/2/5
f 209/3/5 208/3/5 207/3/5
f 210/3/5 208/3/5 209/3/5
f 211/3/6 212/3/6 215/3/6
f 215/3/6 212/3/6 216/3/6
f 213/3/6 214/3/6 217/3/6
f 217/3/6 214/3/6 218/3/6
f 219/2/6 220/2/6 221/2/6
f 221/2/6 220/2/6 222/2/6
f 223/2/6 224/2/6 227/2/6
f 227/2/6 224/2/6 228/2/6
f 225/2/6 226/2/6 229/2/6
f 229/2/6 226/2/6 230/2/6
f 231/2/6 232/2/6 237/2/6
f 237/2/6 232/2/6 238/2/6
f 233/2/6 234/2/6 239/2/6
f 239/2/6 234/2/6 240/2/6
f 235/2/6 236/2/6 241/2/6
f 241/2/6 236/2/6 242/2/6
f 243/2/6 244/2/6 245/2/6
f 245/2/6 244/2/6 246/2/6
f 247/2/6 248/2/6 251/2/6
f 251/2/6 248/2/6 252/2/6
f 249/2/6 250/2/6 253/2/6
f 253/2/6 250/2/6 254/2/6
f 255/3/6 256/3/6 257/3/6
f 257/3/6 256/3/6 258/3/6
